<?xml version="1.0" encoding="utf-8"?>
<!-- Generated by IcoMoon.io -->
<!DOCTYPE svg PUBLIC "-//W3C//DTD SVG 1.1//EN" "http://www.w3.org/Graphics/SVG/1.1/DTD/svg11.dtd">
<svg version="1.1" xmlns="http://www.w3.org/2000/svg" xmlns:xlink="http://www.w3.org/1999/xlink" width="9" height="17" viewBox="0 0 9 17">
<path fill="#555" d="M7.387 2.007c-0.602-0.864-0.961-1.068-1.719-1.068-0.052 0-0.102 0.002-0.153 0.006 0.077-0.106 0.153-0.22 0.172-0.259 0.083-0.167 0.184-0.431 0.057-0.59 0.040 0.039 0.066 0.063-0.018-0.021-0.076-0.072-0.063-0.058-0.029-0.025-0.136-0.102-0.334-0.040-0.398 0.122-0.039 0.097-0.019 0.213-0.019 0.321 0 0.126-0.029 0.253-0.058 0.379-0.058-0.213-0.126-0.408-0.223-0.602-0.078-0.155-0.204-0.311-0.398-0.223-0.165 0.068-0.213 0.272-0.107 0.417l0.213 0.243c0.068 0.087 0.126 0.185 0.185 0.291-0.155-0.165-0.349-0.33-0.563-0.398-0.194-0.058-0.447 0.058-0.389 0.291 0.068 0.262 0.389 0.223 0.583 0.301l0.12 0.046c-0.326 0.209-0.584 0.515-0.731 0.876 0 0-0.583 1.165 0.253 3.408 0.815 2.243-0.136 3.825-0.515 4.446-0.311 0.515-1.468 1.67-2.089 2.291-0.728 0.728-1.133 1.932-0.885 2.534v0.010c0.099 0.256 0.199 0.49 0.358 0.691-0.071 0.030-0.152 0.037-0.224 0.037-0.117 0.010-0.22 0.010-0.337-0.010-0.117-0.010-0.241-0.049-0.348 0.010-0.194 0.117-0.155 0.437 0.078 0.485 0.117 0.029 0.263-0.010 0.379-0.039 0.136-0.029 0.263-0.078 0.379-0.145-0.165 0.145-0.34 0.253-0.524 0.369-0.155 0.097-0.194 0.311-0.049 0.437 0.145 0.136 0.321 0.049 0.447-0.068 0.155-0.155 0.291-0.33 0.417-0.515-0.010 0.097-0.019 0.194-0.049 0.291l-0.107 0.321c-0.039 0.185 0.107 0.359 0.301 0.33 0.213-0.039 0.233-0.253 0.233-0.437 0.009-0.221-0.026-0.434-0.105-0.638 0.293 0.183 0.639 0.289 1.007 0.289 0.466 0 0.893-0.165 1.223-0.447 1.126-0.874 2.835-2.767 3.572-4.087 1.223-2.184 2.048-6.281 0.058-9.67z"></path>
</svg>
