<?xml version="1.0" encoding="utf-8"?>
<!-- Generated by IcoMoon.io -->
<!DOCTYPE svg PUBLIC "-//W3C//DTD SVG 1.1//EN" "http://www.w3.org/Graphics/SVG/1.1/DTD/svg11.dtd">
<svg version="1.1" xmlns="http://www.w3.org/2000/svg" xmlns:xlink="http://www.w3.org/1999/xlink" width="17" height="17" viewBox="0 0 17 17">
<path fill="#555" d="M10.262 3.721h0.548c1.062-1.462-0.729-2.127 0-3.721h-0.548c-0.637 1.568 0.861 2.18 0 3.721zM8.125 4.253h0.557c-0.741-1.595 1.079-2.791 0-4.253h-0.557c0.875 1.542-0.648 2.685 0 4.253zM16.186 13.503c-0.106-0.41-0.233-0.619-0.813-0.665-0.22-0.014-0.431-0.027-0.65-0.041 0.006-0.011 0.010-0.026 0.014-0.037h-1.695c-0.148 0-0.268-0.119-0.268-0.266s0.12-0.266 0.268-0.266h1.809c0.037-0.452-0.016-1.006-0.177-1.295-0.237-0.457-0.458-0.829-0.673-1.123-0.37-0.462-1.057-0.772-1.564-0.939-0.059-0.015-0.132-0.029-0.21-0.042-0.027 0.118-0.129 0.209-0.256 0.209h-1.605c-0.148 0-0.268-0.119-0.268-0.266 0-0.062 0.217-0.119 0.476-0.165-0.322-0.761 0.059-1.696 0.059-1.696 0-0.587-1.070-1.772-1.070-1.063s-2.546 0-2.546 0c-0.346-0.387-0.664-1.063-0.664-1.063s-0.933 0.527-1.048 1.199c-0.331 0.181-0.558 0.526-0.558 0.928v0.531c0 0.248 0.044 0.664 0.155 1.063h1.183c0.148 0 0.268 0.119 0.268 0.266s-0.12 0.266-0.268 0.266h-1.604c-0.12 0-0.217-0.079-0.252-0.187-0.354-0.077-0.712-0.177-1.075-0.315-0.596 0.012-1.080 0.48-1.080 1.061v1.051c0.001 0.196 0.056 0.381 0.155 0.542 0.034-0.016 0.072-0.027 0.113-0.027h2.14c0.148 0 0.267 0.119 0.267 0.266s-0.12 0.266-0.267 0.266h-1.638c0.047 0.018 0.094 0.036 0.144 0.049-0.299-0.003-0.598-0.013-0.896-0.013-0.522 0.003-1.235 0.451-1.476 0.857-0.361 0.631-0.549 1.138-0.614 2.134-0.035 0.665 0.417 2.276 0.919 2.276s14.458-0.012 14.458-0.012 1.591-0.989 1.618-1.597c0.063-0.913-0.68-1.27-0.811-1.888zM6.167 3.19h0.557c-0.875-1.542 0.648-1.621 0-3.19h-0.557c0.74 1.595-1.078 1.728 0 3.19z"></path>
</svg>
